<?xml version="1.0" encoding="utf-8"?>
<!-- Generator: Adobe Illustrator 19.1.0, SVG Export Plug-In . SVG Version: 6.00 Build 0)  -->
<svg version="1.1" id="Layer_1" xmlns="http://www.w3.org/2000/svg" xmlns:xlink="http://www.w3.org/1999/xlink" x="0px" y="0px"
	 viewBox="0 0 1920 1080" style="enable-background:new 0 0 1920 1080;" xml:space="preserve">
<style type="text/css">
	.st0{fill:#231F20;stroke:#231F20;stroke-width:15;stroke-miterlimit:10;}
	.st1{fill:#EE2A7B;}
	.st2{fill:#231F20;stroke:#000000;stroke-width:4;stroke-linecap:round;stroke-linejoin:round;}
	.st3{fill:none;}
	.st4{fill:#FFDE17;stroke:#FFDE17;stroke-width:4;stroke-linecap:round;stroke-linejoin:round;}
	.st5{fill:none;stroke:#7F3F98;stroke-width:4;stroke-linecap:round;stroke-linejoin:round;}
	.st6{fill:none;stroke:#1C75BC;stroke-width:4;stroke-linecap:round;stroke-linejoin:round;}
	.st7{fill:none;stroke:#8B5E3C;stroke-width:4;stroke-linecap:round;stroke-linejoin:round;}
	.st8{fill:none;stroke:#009444;stroke-width:4;stroke-linecap:round;stroke-linejoin:round;}
	.st9{fill:none;stroke:#603913;stroke-width:4;stroke-linecap:round;stroke-linejoin:round;}
</style>
<line class="st0" x1="883.8" y1="742.3" x2="880.4" y2="1070"/>
<line class="st0" x1="932.3" y1="743.4" x2="939.5" y2="1071"/>
<g>
	<g id="XMLID_69_">
		<g>
			<path d="M1275,270.8c9.5,62.7,6.7,126.5,3.4,189.7c-4.5,83.4-53.2,157.5-105,223.1c-10.7,13.7-21.7,27.1-34.4,39
				c-42.3,39.4-100.1,57.5-156.8,69.4c-57.4,12.1-118.8,18.8-173.6-2.4c-30.1-11.6-56.6-31.2-79.9-53.5
				c-69.2-66.3-111.8-158.9-119.7-254.4c-7.8-95.5,18.7-193.1,71.8-272.9c14.6-21.9,31.1-42.6,48.6-62.3
				c17.8-20.2,36.6-39.5,57.4-56.7C845.5,41.3,920.4,11.2,996.6,11c76.2-0.2,153.1,31,203.9,87.8
				C1242.7,146.1,1265.5,208.2,1275,270.8z M1230.9,512.6c18.3-52,17.1-108.6,15.7-163.8c-0.6-23.7-1.2-47.6-5.6-71
				c-5-26.5-14.8-52-27.7-75.7c-37.2-68.5-100.7-122.3-174.3-147.7c-12.2-4.3-24.8-7.7-37.7-8.5c-12.8-0.7-25.7,1.2-38.4,3.1
				c-28.8,4.5-58.1,9.1-84.8,21.1c-20,9.1-38,22-55.1,35.9c-84.1,68.1-150.7,161.2-173.6,267c-22.8,105.8,2.3,224,76.9,302.4
				c28.3,29.8,63.6,53.7,103.2,64.8c57.2,16,118.3,4.6,175.5-11.4c36.8-10.3,74-23.1,103.3-47.7c10.9-9.1,20.5-19.7,30-30.3
				C1175.5,609,1212.4,565.2,1230.9,512.6z"/>
			<path class="st1" d="M1246.6,348.8c1.4,55.1,2.6,111.8-15.7,163.8c-18.5,52.6-55.4,96.4-92.5,138.1c-9.5,10.6-19.1,21.2-30,30.3
				c-29.3,24.6-66.5,37.4-103.3,47.7c-57.2,16.1-118.3,27.5-175.5,11.4c-39.6-11.1-74.9-35-103.2-64.8
				C651.7,597,626.6,478.8,649.5,373c22.9-105.8,89.5-198.9,173.6-267c17.1-13.8,35.1-26.8,55.1-35.9c26.6-12,55.9-16.6,84.8-21.1
				c12.7-1.9,25.6-3.9,38.4-3.1c12.9,0.8,25.6,4.3,37.7,8.5c73.7,25.4,137.2,79.2,174.3,147.7c12.8,23.7,22.7,49.2,27.7,75.7
				C1245.4,301.2,1246,325.1,1246.6,348.8z M1047.8,430.2c5.6-17.5,1.9-36.5-3.2-54.1c-8.4-29.1-21.4-58-44.4-77.8
				c-23-19.7-57.9-27.9-84.3-13.3c-10.7,6-19.2,15-27.2,24.1c-13.9,15.9-26.7,32.8-38.3,50.5c-11.3,17.3-21.7,36.1-23.1,56.7
				c-2.6,39.6,31.2,75.2,69.8,83.9c38.6,8.7,79.5-4.8,112.5-26.6C1026,462.8,1041.8,448.9,1047.8,430.2z"/>
			<path d="M1044.5,376.1c5.2,17.6,8.8,36.7,3.2,54.1c-6,18.7-21.8,32.6-38.1,43.5c-33,21.8-73.9,35.3-112.5,26.6
				c-38.7-8.7-72.4-44.4-69.8-83.9c1.4-20.6,11.8-39.4,23.1-56.7c11.6-17.7,24.4-34.6,38.3-50.5c8-9.2,16.5-18.2,27.2-24.1
				c26.5-14.7,61.3-6.5,84.3,13.3C1023.1,318,1036.1,347,1044.5,376.1z M1018.7,411.3c3.3-11.1-3.3-22.4-10-31.7
				c-8.6-12-17.8-23.5-27.5-34.6c-6.1-7-16.2-14.2-23.6-8.7c-3.5,2.6-8.4,1.5-12.8,1.1c-13.9-1.4-27.3,5.3-38.5,13.5
				c-18.6,13.5-33.7,31.9-43.5,52.7c-2.3,4.8-4.4,10-4.6,15.3c-0.3,9.1,4.6,17.7,11.7,23.5c7,5.8,15.7,9,24.5,11.2
				c39,9.6,82.3-0.7,112.8-26.9C1012.1,422.4,1016.8,417.6,1018.7,411.3z"/>
		</g>
		<g>
		</g>
	</g>
</g>
<path class="st2" d="M909.4,207.4c-22.9-6.5-39-21.3-40.2-36.8c-0.4-5.9,1.5-12.3,8.2-16.7c6.5-4.3,18.7-5.5,25.6-1.3
	C926.3,166.4,929.1,191.5,909.4,207.4z"/>
<path class="st2" d="M993.8,190.9c-4.6-7.3-3.3-15.4-1.9-23.3c1-5.6,3.1-12.1,11.4-14.7c6.7-1.9,14.8-0.1,20,3.1
	c5,3.3,7.8,7.6,10.4,11.8c3.7,6.1,7.4,12.4,6.8,19c-0.6,6.5-6.7,13.2-16.7,15.1C1011.5,204.2,998.5,198.3,993.8,190.9z"/>
<line class="st3" x1="780.3" y1="366.6" x2="772.7" y2="389.2"/>
<line class="st3" x1="757.6" y1="502.6" x2="776.5" y2="540.4"/>
<line class="st4" x1="1054.7" y1="623" x2="1092.9" y2="580.5"/>
<line class="st5" x1="1134" y1="377.9" x2="1112.8" y2="427.5"/>
<line class="st4" x1="1112.8" y1="236.2" x2="1146.8" y2="260.3"/>
<line class="st6" x1="964" y1="250.4" x2="1005.1" y2="250.4"/>
<line class="st7" x1="805.3" y1="230.5" x2="815.2" y2="257.5"/>
<line class="st6" x1="757.1" y1="307.1" x2="733.1" y2="331.1"/>
<line class="st8" x1="738.7" y1="428.9" x2="758.6" y2="447.3"/>
<line class="st4" x1="726" y1="513.9" x2="701.9" y2="540.8"/>
<line class="st7" x1="765.6" y1="591.8" x2="765.6" y2="631.5"/>
<line class="st7" x1="854.9" y1="553.6" x2="869.1" y2="581.9"/>
<line class="st7" x1="951.3" y1="623" x2="931.4" y2="666.9"/>
<line class="st6" x1="820.9" y1="675.4" x2="849.2" y2="709.4"/>
<line class="st8" x1="979.6" y1="515.3" x2="1002.3" y2="549.3"/>
<line class="st5" x1="1068.8" y1="455.8" x2="1068.8" y2="499.7"/>
<line class="st4" x1="1165.2" y1="447.3" x2="1182.2" y2="472.8"/>
<line class="st8" x1="1176.5" y1="538" x2="1170.9" y2="580.5"/>
<line class="st6" x1="1015" y1="651.3" x2="1015" y2="686.8"/>
<line class="st8" x1="1207.7" y1="307.1" x2="1207.7" y2="336.8"/>
<line class="st9" x1="1052.7" y1="111.9" x2="1009.9" y2="89.9"/>
<line class="st9" x1="890.1" y1="106.8" x2="852.3" y2="122"/>
</svg>
