<?xml version="1.0" encoding="utf-8"?>
<!-- Generator: Adobe Illustrator 19.1.0, SVG Export Plug-In . SVG Version: 6.00 Build 0)  -->
<svg version="1.1" id="Layer_1" xmlns="http://www.w3.org/2000/svg" xmlns:xlink="http://www.w3.org/1999/xlink" x="0px" y="0px"
	 width="960px" height="560px" viewBox="0 0 960 560" style="enable-background:new 0 0 960 560;" xml:space="preserve">
<style type="text/css">
	.st0{fill:#a46f11;}
	.st1{fill:#64C236;}
	.st2{fill:none;stroke:#64C236;stroke-miterlimit:10;}
</style>
<g>
	<g id="XMLID_1_">
		<g>
			<path d="M587.4,43.1c-0.7-0.1-1.2,0.5-1.8,0.9c-1.9,1.3-4.9,0.1-5.4-2.1l0.4-3.9c7.3,0.8,14.5,1.7,21.7,2.5
				c3.3-1.8,6.7-3.7,10-5.5c10.6,0.5,21.2,1.1,31.8,1.6c2.5-2,4.9-4,7.4-6c-1.6,1.7,1.9,4.4,4.6,4.6c16.5,1.3,33.2-0.3,49.1-4.7
				c2.5,2.9,5,5.8,7.5,8.6l0.3,4c-11.7,1-23.5,0.4-35.1-1.7c-0.2,6.8-0.9,14.3-2.6,21.3l-2.5-0.3c0.3-1.2,0.1-2.7-0.4-3.9
				c-1-2.2-2.5-4.6-1.4-6.7c1.6-3.1-0.6-7.1-3.7-8.6c-3.1-1.5-6.8-1.3-10.2-1c-1.4,0.1-2.9,0.2-4.3,0.3c-4.5,0.4-9.1,0.7-13.6,1.2
				c-4.3,0.4-8.6,0.9-12.9,1.4c-1.6,0.2-3.6,0.7-4,2.3c-0.2,0.8,0.1,1.7,0.5,2.5c4.4,10.6,8.9,21.3,13.3,31.9
				c0.5,1.2,1.1,2.6,2.2,3.3l-0.5,0.8c-5.1-2.8-9.5-7.3-12.5-12.3c-5.7-9.7-7.4-21.1-8.9-32.3c-6.2,4.9-16.5,9.1-21.6,4.5
				c-0.5-0.9-1.1-1.7-1.8-2.4c0.5,1,1.1,1.8,1.8,2.4c2.9,5,2.4,11.8-0.8,16.8l-3.2-0.6c0.4-0.7,0.6-1.6,0.7-2.4
				c0.7-5.3-0.3-10.7-2.8-15.4C588.5,43.8,588.1,43.2,587.4,43.1z"/>
			<path d="M495.1,131.6c-2.8-1-5.5-3.7-4.6-6.5c0.5-1.7,2.2-2.7,3.7-3.6c3.9-2.2,7.8-4.5,11.7-6.7c1.3-0.8,5.9-0.7,8.5,0.1
				c-0.6,0.4-1,0.9-1.4,1.4c0.3,0.9,0.8,1.6,1.6,2.1c-4.3,4-13.1,5.8-17.9,8.1c4,0.5,7.7,2.5,10.3,5.4c2.2,2.4,4,5.7,7.2,6.2
				c2.9,0.4,5.6-1.7,7.3-4.1c1.7-2.4,3-5.1,5.3-7c1.9-1.5,0.8-4.7-1.3-5.9c-2-1.2-4.5-1.1-6.9-1.3c-1.4-0.2-2.9-0.6-4-1.5
				c0.7-0.6,1.3-1.3,1.7-2.1c-0.1-0.6-0.8-1.1-1.9-1.4c2.2-1.6,5.4-1.8,8.1-0.9c3.3,1.1,6,3.6,8.5,5.9c1.6,1.5,3.3,3.1,3.9,5.2
				c0.6,2.1-0.1,4.8-2.2,5.5c-4.6,1.6-6.3,7.3-9.9,10.5c-4.5,3.9-12.2,3.3-15.9-1.4c-1.3-1.6-2.1-3.5-3.6-4.9
				C501.1,133,497.9,132.7,495.1,131.6z"/>
			<path d="M106.2,15.4c22.4,5.4,45.7,7.1,68.6,5.3c1,2,2,4,2.9,6l2,2.8c-1.2,0.8-2.5,1.3-4,1.4c-5.4,0.4-11-0.2-16.2-1.8
				c-1.3-0.4-2.7-0.9-4-0.5c-1.6,0.4-2.6,1.9-3.2,3.5c-1.1,3.1-0.8,6.4,0.4,9.5l-3.4,0.8c-1.8-4.3-2.7-8.8-2.2-13.7
				c-17-4.8-35.3-4.5-52.1,1c8.9,9.2,3.4,25.7-7.4,32.6l-0.5-0.8c1.7-1.2,2.8-3.8,3.2-6.1c0.8-3.5,1.5-7,2.3-10.6
				c0.8-4,1.7-8.3,0.3-12.1c-1.1-3-4.1-5.4-7.1-5.5L85.9,23c4.4-0.1,8.8-0.8,13-1.9C101.3,19.2,103.8,17.3,106.2,15.4z"/>
			<path class="st0" d="M811.5,107.7c1.3,4.6-1.1,9.3-3.4,13.5c-0.7,1.2-1.4,2.5-2.5,3.4c-3.9,2.9-9.2-1-11.7-5.1
				c-2.5-4.1-5-9.3-9.8-9.9c-2-0.3-3-2.7-2.5-4.7c0.5-2,2-3.4,3.5-4.8c2.9-2.5,5.9-4.9,9.1-7.2c0.9-0.7,1.9-1.3,3.1-1.3
				c1.3,0,2.4,1,3.4,2c2.6,2.6,5.1,5.3,7.4,8.2C809.4,103.5,810.9,105.5,811.5,107.7z"/>
			<path class="st0" d="M515,39.5c0.9-0.2,1.8,0,2.7,0.1c3.9,0.8,7.8,1.6,11.7,2.5c3.1,0.7,4.6-3.6,4.8-6.8c2.4,0.8,3.1,3.9,3.3,6.5
				c0.4,4.1,0.8,8.1,1.2,12.2c0.2,2.3,0.4,4.7-0.3,6.8c-1.4,4-4.2,11.3-7.4,14.1c-5.8,5.1-9.7,8.5-7.7,15.9c0.3,1.1,0.1,1.7-0.3,2.1
				c-0.8,0.8-2.5,0.9-4.4,1.6c-6.1,2.4-13.4,7-19.8,8.5c-4.8,1.1-9.8,2-14.6,1c-4.5-1-8.9-4-10.3-8.4c-0.1-0.3-0.2-0.6-0.2-0.9
				c-1.6-7,4.4-13.3,5.6-20.4c1.1-6.8-2.4-13.5-2.7-20.4c-0.2-6.4,2.5-12.9,7.4-17.2c2.2,4.9,9.4,6.4,13.4,2.9
				c3.7-3.4,9.6,3.7,14.2,1.7C512.8,40.8,513.7,39.8,515,39.5z"/>
			<path d="M750.8,119.5c1.8,1.9,3.5,3.8,5.3,5.7c0.7,0.8,1.6,1.6,2.6,1.3c0.4-0.1,0.8-0.4,1.1-0.7c2.2-2.3,2.5-6.2,0.8-8.8
				c-1.7-2.7-5.4-3.9-8.4-2.8c-1.5,0.5-2.9,1.9-2.6,3.5C749.7,118.3,750.3,118.9,750.8,119.5z M743.4,120.3
				c-1.3-2.3-0.8-5.3,0.8-7.4c1.6-2.1,3.9-3.5,6.3-4.5c3.9-1.7,8.9-2.6,11.8,0.4c1.2,1.2,1.8,2.8,2.2,4.5c1.3,4.8,1.5,10,0.4,14.8
				c-0.4,1.8-1.1,3.7-2.6,4.7c-2.3,1.6-5.6,0.4-7.6-1.6c-2.1-1.9-3.5-4.5-5.7-6.3C747.2,123.4,744.7,122.4,743.4,120.3z"/>
			<path d="M587.1,68.5c-9.5,3.2-18.3-3.7-23-13l1.7-0.9c0.1,0.3,0.3,0.5,0.6,0.8c0.4,0.4,0.9,0.5,1.3,0.7
				c6.2,2.4,12.5,4.8,18.8,7.3c0.9,0.3,1.8,0.7,2.7,0.5c0.8-0.2,1.3-0.8,1.7-1.5l3.2,0.6C592.5,65.4,590.1,67.5,587.1,68.5z"/>
			<path d="M653.2,89.2c-5.3,0.9-10.6-0.4-15.3-3.1l0.5-0.8c0.3,0.2,0.7,0.4,1.2,0.5c0.8,0.1,1.6-0.1,2.3-0.4
				c3.8-1.2,7.6-2.3,11.3-3.5c4.2-1.3,8.8-2.9,11-6.8c1.1-1.9,1.4-4.2,2.1-6.3c0.8-2.1,2.4-4.1,4.6-4.4c1.1-0.1,1.8-0.9,2-2l2.5,0.3
				C672.3,75.9,665.8,87.2,653.2,89.2z"/>
			<path d="M204.9,120.5c-5.7-0.2-11.6-1.8-15.9-5.7s-6.4-10.3-4.4-15.6c1.9-5,7-8.2,12.1-10c7.6-2.8,16.4-3.5,23.7,0.2
				c4.5,2.3,8.1,6,11.5,9.7c2.8,2.9,5.7,6.2,6,10.2c0.2,2.3-0.5,4.7-1.2,6.9c-1.9,6-5.2,13-11.5,13.5
				C217.6,130.2,212.4,120.7,204.9,120.5z M217.1,93.9c-5-0.8-10.2-1.6-15.2-0.6c-5,1-9.8,4.3-11.3,9.2c-1.4,4.9,1.9,11.1,7,11.3
				c9.3,0.4,18.4,4.3,25.2,10.7c3-3.1,6.1-6.4,7.5-10.4c1.4-4.1,0.7-9.3-2.9-11.7C223.8,99.7,221.6,94.6,217.1,93.9z"/>
			<path d="M342.4,46c-8.1-6.4-17.3-11.4-27.1-14.4l3.1-2.8c11.6-4.6,26.4,4.3,27.7,16.8L342.4,46z"/>
			<path d="M595,46c-0.7-0.6-1.3-1.4-1.8-2.4C593.9,44.4,594.5,45.2,595,46z"/>
			<path d="M421.9,70.7c-4.6,11.2-16,19.2-28.1,19.6c-5.3,0.2-10.5-1-15.3-3.4l0.9-1.9c3.3,1.6,7.4,1.2,10.8,0
				c4-1.4,7.5-3.8,11.5-5.5c4.7-1.9,9.8-2.7,14-5.5c1.7-1.2,3.2-3,4.1-4.9l2.3,0.8C422.1,70.2,422,70.4,421.9,70.7z"/>
			<path class="st0" d="M101.1,111.8c-4.5,0.1-8.9,0.2-13.4,0.3c-3.1,0.1-6.6-0.1-8.6-2.5c1.8-2.3,4.6-3.9,7.6-4.1
				C92.1,105.1,96.9,108.5,101.1,111.8z"/>
			<path class="st0" d="M910.6,37.7c0.7,17.6-7.5,25-17.1,12.4c1-3.1,2.3-5.8,4.6-8.1C901.1,39.2,907,36,910.6,37.7z"/>
			<path class="st0" d="M378.3,112c2.3,7-1.2,16.2-8.4,17.3c-2.9,0.4-5.8-0.5-8.5-1.5c-10.8-3.8-21.4-8.3-31.5-13.6
				c-3.1-1.7-6.5-3.7-7.7-7c-1.3-3.6,0.4-7.5,2-11c3.1-6.5,7.2-13.7,14.2-14.7c4.5-0.6,8.9,1.6,12.7,4c4.7,3,9,6.5,13.4,10
				C370.1,100.1,376.1,105.1,378.3,112z"/>
			<path class="st0" d="M658,128.7c-7.8,0-14.8-4.4-21.3-8.7c-0.7-0.5-1.5-1-1.7-1.9c-0.2-0.9,0.3-1.7,0.8-2.4
				c6-8.3,17.7-11.9,27.3-8.5c1.2,1.8-1.1,3.8-2.7,5.2C655.8,116.3,654.7,123.7,658,128.7z"/>
			<path d="M516.3,116.3c-0.4,0.8-1,1.5-1.7,2.1c-0.8-0.5-1.3-1.2-1.6-2.1c0.4-0.6,0.9-1,1.4-1.4
				C515.5,115.2,516.2,115.7,516.3,116.3z"/>
			<path d="M484.3,104c4.8,1,9.8,0.1,14.6-1c6.4-1.5,13.7-6.2,19.8-8.5c1.9-0.7,3.6-0.8,4.4-1.6l0.8,0.7c-0.5,0.7-1.1,1.3-1.7,1.9
				c-7.4,8.2-17.2,14.9-28.2,15.5c-10,0.5-20.7-5.6-23.6-15l3.6-0.5C475.4,100,479.8,103,484.3,104z"/>
			<path d="M101.1,111.8c-4.2-3.3-9-6.8-14.4-6.3c-2.9,0.3-5.8,1.8-7.6,4.1c1.9,2.4,5.5,2.5,8.6,2.5
				C92.2,112.1,96.6,112,101.1,111.8z M105.3,109.2c1.1,2.8-1.1,6-3.8,7.2c-2.7,1.3-5.9,1.2-8.8,1.4c-3.7,0.3-7.4,1.1-11.1,0.5
				s-7.4-2.8-8.2-6.5c-1.1-4.9,3.8-9.3,8.7-10.6c7.4-2.1,15.9,0.1,21.4,5.5C104.2,107.4,104.9,108.2,105.3,109.2z"/>
			<path class="st0" d="M87.3,61.5c-0.7,0.4-1.4,0.7-2.3,0.5c-13.6-1.7-27.4-1.3-40.8,1.4c-2.1,0.4-3.8-2.2-3.5-4.4
				c0.2-2.2,1.6-4,2.5-6c2.3-5.7,0.2-12.1-2.1-17.8c-0.6-1.5-1.2-3.2-1.2-4.8c0-0.4,0.1-0.8,0.2-1.2c0.5-2,3.1-3.6,4.8-2.3
				c2.9,2.2,6.1,4.4,9.8,4.4c3.6,0,7.4-3.6,6.1-7.1c5.8,5.8,15.4,7.3,22.6,3.5c0.8-0.4,1.7-0.6,2.6-0.6c3,0.1,6,2.5,7.1,5.5
				c1.4,3.8,0.6,8.1-0.3,12.1c-0.8,3.5-1.5,7-2.3,10.6C90.1,57.6,89,60.3,87.3,61.5z"/>
			<path d="M16.8,17.8c3.2,2.3,6.4,4.7,9.6,7.1c8.2-5.5,19.9-5.3,27.9,0.5c1.6-2.7,3.2-5.3,4.8-7.9c8.3,4,17.6,5.9,26.8,5.6l0.1,4.2
				c-0.9,0-1.8,0.2-2.6,0.6c-7.2,3.8-16.9,2.3-22.6-3.5c1.3,3.4-2.5,7-6.1,7.1c-3.7,0-6.9-2.3-9.8-4.4c-1.7-1.2-4.2,0.3-4.8,2.3
				c-0.1,0.4-0.2,0.8-0.2,1.2l-2.6-0.1c0-0.4,0-0.8,0-1.2c-6.4,2.3-13.9,1.3-19.5-2.5c-1.3,3.3-4.6,4.9-8,4.9l0-4.3
				C12.1,24.2,14.5,21,16.8,17.8z"/>
			<path class="st0" d="M856.4,112.8c0.9,1.3,0.7,3.1,0.4,4.7c-0.7,5-1.8,10.5-6,13.3c-5.4-5.4-12.2-9.5-19.6-11.8
				c0.9-3.8,4.4-6.5,8.1-7.6c3.7-1.1,7.7-0.9,11.5-0.7C852.9,110.8,855.2,111.1,856.4,112.8z"/>
			<path class="st0" d="M464.4,120.8c0.2,1.4,0.4,2.9-0.4,4.1c-0.5,0.8-1.3,1.3-2.1,1.7c-4.9,2.9-9.8,5.8-14.8,8.7
				c-1.2,0.7-2.4,1.4-3.8,1.4c-2,0-3.5-1.6-4.9-3.1c-5.6-6.3-11.3-12.5-16.9-18.8c-0.7-0.8-1.4-1.6-1.7-2.6
				c-0.6-2.6,1.9-4.7,4.1-6.2c8.6-6,16.1-13.6,21.9-22.5c2.8-0.3,5,2.7,5.7,5.4c0.7,2.8,0.5,5.8,1.8,8.4c1.1,2.5,3.4,4.2,5.2,6.4
				C462.4,108.5,463.5,114.8,464.4,120.8z"/>
			<path d="M593.2,131.7c-4.2,2.3-8.7,4.8-13.5,5.1c-7.2,0.4-13.8-3.8-19.4-8.4c-5.6-4.6-11-9.8-17.9-12c-4.9-1.5-7.3-7.5-6.3-12.6
				s4.3-9.3,7.7-13.1c7-7.8,15.3-15.2,25.5-17.5c10.3-2.2,21.1,1.2,30.3,6.4c4.8,2.7,9.5,6.1,12.2,11c2.8,4.9,3.2,10.7,3.5,16.3
				c0.3,4.7,0.3,9.9-2.8,13.3c-1.3,1.3-2.9,2.3-4.5,3.2C603.1,126.3,598.2,129,593.2,131.7z M562.6,122c5.6,4.6,12.4,8.8,19.5,7.9
				c8.5-1,14.7-8.9,23-11.1c3.1-0.8,5.2-3.7,5.9-6.8c0.7-3.1,0-6.3-1-9.3c-3.4-9.8-11.4-17.8-21.2-21.3c-9.8-3.5-21.1-2.3-29.9,3
				c-5.5,3.4-10.1,8.2-14,13.3c-1.5,1.9-3,4-3.3,6.4c-0.4,2.4,0.8,5.3,3.2,5.9C551.6,112.1,557,117.4,562.6,122z"/>
			<path d="M727.8,39.7l-3.7,2.1c-3.7,0.6-7.4,1.1-11.1,1.3l-0.3-4c3.2-3,6.4-5.9,9.6-8.9C724.2,33.4,726,36.6,727.8,39.7z"/>
			<path class="st1" d="M9.8,27.4c-2-3.4-6.5-5.2-10.3-4l0,0l0-22.8l962,0l0,0.5l0,20.7c-9.4,0.4-18.8,0.7-28.3,1.1
				c-5.8,0.2-11.6,0.4-17.4,0.6c-3.9,0.1-9.4,3.1-7.2,6.3c-2.7-3-5.4-6-8.1-9c-3.6,4.3-11.1,4.6-15,0.6c-4.3,3.1-7.7,7.5-9.8,12.5
				c-3.2-2.7-5.7-6.2-7.2-10.1c-3.9,1.8-7.2,4.8-9.2,8.6c-2.1-3.2-3.4-6.8-3.8-10.6c-4.5,5.6-16.1,9.1-16.1,1.9
				c-2.1,4.6-4.1,9.2-6.2,13.7c-6.7-2.7-13.4-5.4-20.1-8.1c-6.1,1.5-12.2,2.9-18.2,4.4c-10.4-0.8-20.8-1.5-31.3-2.3
				c-6.2,9.6-20.9,4.8-30.8-0.9c-1.6,3.2-3.2,6.5-4.9,9.7c-0.1-0.1-0.1-0.2-0.2-0.4c-1.8-3.2-3.6-6.3-5.5-9.5
				c-3.2,3-6.4,5.9-9.6,8.9c-2.5-2.9-5-5.7-7.5-8.6c-15.9,4.4-32.6,6-49.1,4.7c-2.7-0.2-6.2-2.9-4.6-4.6c-2.5,2-4.9,4-7.4,6
				c-10.6-0.6-21.2-1.1-31.8-1.6c-3.3,1.8-6.7,3.7-10,5.5c-7.3-0.8-14.5-1.7-21.7-2.5c-13.5-1.6-26.9-3.1-40.4-4.7
				c-1.8-3.2-3.6-6.4-5.5-9.5c-1.4,3.3-2.8,6.7-4.3,10c-0.3,0.7-0.6,1.4-0.9,2.1c-11.9-4.5-25.2-4.9-37.4-1.2
				c-0.4-3.5-2.9-6.6-6.1-7.9c-4.6,5.8-9.2,11.5-13.9,17.3c1.3-5.4-8.1-9-10.8-4c-1.2-3.9-2.5-7.8-3.7-11.8
				c-3.4,1.8-6.7,3.7-10.1,5.5c-2-0.7-4.1-1.4-6.2-2c-7.6-2.3-15.4-3.7-23.4-4.3c-15.8-1.3-31.8,0.7-46.8,5.9
				c-1.6-6.1-10.5-7.4-15.7-3.8c-5.2,3.6-7.5,10-9.5,16c-1.3-12.4-16.1-21.4-27.7-16.8c-0.8-3.1-1.6-6.3-2.4-9.4
				c-2.6,1.4-5.3,2.9-7.9,4.4c-12.1,0-24.1,0-36.2,0c-4.8,1-9.7,2.1-14.5,3.1c-1.3,0.3-2.6,0.6-3.9,0.8c-15.3-1.2-30.6-2.5-46-3.7
				c-7.7-0.6-17.3-2.7-19.1-10.3c-5.1,2.6-9.1,7.5-10.6,13c-1-2-2-4-2.9-6c-23,1.9-46.2,0.1-68.6-5.3c-2.5,1.9-4.9,3.8-7.4,5.6
				c-4.2,1.1-8.6,1.8-13,1.9c-9.2,0.3-18.5-1.6-26.8-5.6c-1.6,2.7-3.2,5.3-4.8,7.9c-8-5.8-19.7-6-27.9-0.5c-3.2-2.3-6.4-4.7-9.6-7.1
				C14.5,21,12.1,24.2,9.8,27.4z"/>
			<path d="M158.9,49.9c5,4.4,11.3,7.4,16.2,12c4.5,4.2,8.9,10.3,15.1,9.8c5.1-0.5,8.5-5.5,11.1-10c4.7-8.2,9.5-16.7,10.7-26
				c-9.7-1.5-18.9-6.2-25.7-13.3c-1.8,2.7-3.9,5.6-6.5,7.3l-2-2.8c1.5-5.6,5.5-10.4,10.6-13c1.8,7.5,11.3,9.6,19.1,10.3
				c15.3,1.2,30.7,2.5,46,3.7c1.3-0.3,2.6-0.6,3.9-0.8l0.9,4.4c-1.1,12.9-5.1,25.6-11.5,36.9c-2.7,4.9-6,9.7-6.3,15.3
				c0,0.1,0,0.3,0,0.4l-3.5-0.2c0-1.4,0.2-2.8,0.4-4.2c2.6-15.1,14.9-28.3,13-43.5c-10.6-2-21.2-4-31.8-6
				c-2.4,12.9-7.2,25.3-14.2,36.5c-2.7,4.3-6,8.7-10.9,10c-6.4,1.7-12.9-2.4-18.2-6.4c-10.2-7.5-21.2-16.6-25.9-27.7l3.4-0.8
				C154.1,44.7,156.4,47.6,158.9,49.9z"/>
			<path d="M351,85.5c-3.8-2.5-8.2-4.7-12.7-4c-7.1,1-11.2,8.3-14.2,14.7c-1.6,3.5-3.3,7.4-2,11c1.2,3.3,4.5,5.3,7.7,7
				c10.2,5.3,20.7,9.9,31.5,13.6c2.7,1,5.6,1.9,8.5,1.5c7.2-1.1,10.7-10.3,8.4-17.3c-2.2-6.9-8.2-11.9-13.9-16.5
				C360.1,92,355.7,88.5,351,85.5z M315.7,108.4c-0.6-2.2,0.1-4.5,0.9-6.7c2.3-6.6,5.4-12.9,9-18.9c0.9-1.5,1.9-3,3.3-4.1
				c2-1.7,4.6-2.4,7.2-2.5c7.6-0.5,15,2.9,21.1,7.4c6.2,4.5,11.6,9.9,17.9,14.3c3.2,2.3,5.3,5.8,6.7,9.5c2.4,6.4,2.9,13.8-0.3,19.8
				c-3.1,6-10.5,10.1-17,8c-4.8-1.5-8.8-6-13.8-5.4c-2.7,0.3-5.2-1.1-7.6-2.5c-7-4.1-14-8.1-20.9-12.2
				C319.5,113.4,316.5,111.4,315.7,108.4z"/>
			<path class="st0" d="M779.2,43.7c0,8.1-0.8,16.2-2.4,24.1c-0.3,1.6-0.7,3.2-1.6,4.5c-0.1,0.2-0.3,0.4-0.4,0.5
				c-2.2,2.5-6,2.9-9.4,3.1c-5.7,0.3-11.5,0.6-17-0.9c-5.5-1.4-10.8-4.8-13.1-10.1c-2.2-5-1.4-11.1-4.3-15.8c-1.8-2.9,0.5-7,3.8-8.1
				c3.2-1.1,6.8,0,9.9,1.4c3.1,1.4,6.2,3.1,9.6,3.4c3.4,0.3,7.3-1.6,8.1-4.9c0.4-1.6,2.8-1.6,4.1-0.5c1.3,1,2.3,2.6,4,3
				c3,0.7,5-2.8,6-5.7c0.9,0.2,1.8,0.4,2.7,0.6C779.2,40,779.2,41.9,779.2,43.7z"/>
			<path d="M782.4,43.8c6.1,9.2,3,21.1-4.5,29.1l-3-0.1c0.1-0.2,0.3-0.3,0.4-0.5c0.9-1.3,1.3-2.9,1.6-4.5c1.5-7.9,2.3-16,2.4-24.1
				L782.4,43.8z"/>
			<path d="M839.3,111.4c-3.7,1.1-7.2,3.8-8.1,7.6c7.4,2.3,14.1,6.3,19.6,11.8c4.2-2.8,5.2-8.3,6-13.3c0.2-1.6,0.4-3.3-0.4-4.7
				c-1.1-1.7-3.5-2-5.5-2.1C847,110.5,843,110.3,839.3,111.4z M826,119.7c-1-3.3,1-6.9,3.5-9.3c7.8-7.8,21.2-9.1,30.3-2.9
				c1.1,0.8,2.2,1.7,2.7,2.9c0.5,1.4,0.2,2.9-0.1,4.4c-0.8,3.4-1.5,6.7-2.3,10.1c-0.7,3-1.4,6.2-3.3,8.7c-1.9,2.5-5.4,4-8.3,2.8
				c-2.8-1.2-4.1-4.4-6.3-6.5C837.3,125.5,827.8,126,826,119.7z"/>
			<path class="st0" d="M66.4,90.5c1.1,2.9-1.7,5.8-4.5,7c-2.9,1.2-6.2,1.7-8.1,4.2c-2.2,2.8-1.7,7.1-4.3,9.5
				c-1.5,1.3-3.6,1.7-5.6,2c-3.5,0.5-7.1,0.9-10.5,0s-6.6-3.4-7.3-6.8c-0.3-1.6-0.1-3.3-0.8-4.8c-2-4.5-10.2-4.2-10.9-9.1
				c-0.2-1.5,0.5-3,1.2-4.4c1.7-3.4,3.5-6.8,6.6-9c4.3-2.9,9.9-2.5,15-2c4.8,0.5,9.7,0.9,14.5,1.4c2.6,0.2,5.2,0.5,7.5,1.8
				C63,82.3,64.9,86.6,66.4,90.5z"/>
			<path class="st0" d="M610,102.7c1,3,1.7,6.2,1,9.3c-0.7,3.1-2.8,6-5.9,6.8c-8.3,2.2-14.5,10-23,11.1c-7.2,0.9-13.9-3.3-19.5-7.9
				c-5.6-4.6-11-9.9-17.9-11.9c-2.4-0.7-3.5-3.5-3.2-5.9c0.4-2.4,1.8-4.5,3.3-6.4c4-5.1,8.5-10,14-13.3c8.8-5.4,20.1-6.5,29.9-3
				C598.6,84.8,606.6,92.9,610,102.7z"/>
			<path d="M250.6,112.2c-9-6.3-14.1-17.5-13.6-28.5l3.5,0.2c-0.2,7.6,5,14.1,10.2,19.7c3.2,3.4,6.5,6.8,10.8,8.5
				c7.5,2.9,16.2-0.2,22.1-5.6c5.9-5.4,9.6-12.7,13.2-19.9c4.6-9.3,9.2-18.5,13.8-27.8c4.9-9.9,1.7-23.2-7.2-29.8
				c-0.3-0.3-0.7-0.5-1.2-0.6c-1.6-0.1-1.8,2.1-2.6,3.5c-1.6,2.9-6,1.7-8.8,0c-2.8-1.7-6.9-3.3-9-0.8c-2.7,3.3-9.6-2-11.9,1.6
				c-2.4,3.7-8,1.3-11.5-1.4l-0.9-4.4c4.8-1,9.7-2.1,14.5-3.1c12,0,24.1,0,36.2,0c2.6-1.4,5.3-2.9,7.9-4.4c0.8,3.1,1.6,6.3,2.4,9.4
				l-3.1,2.8c6.8,21.9-5.6,44.8-17.5,64.4c-3.5,5.7-7.1,11.6-12.4,15.7C275.6,119.3,260.8,119.3,250.6,112.2z"/>
			<path d="M101,84.5c-0.9,4.9,3.4,9.4,8.2,11c4.7,1.5,9.9,1,14.9,1.2c4.8,0.1,9.5,1,14.2,1.9c4.3,0.9,9.1,1.7,12.7-0.7
				c4-2.8,4.6-8.7,3-13.3c-1.7-4.6-5-8.4-7.7-12.4c-2-3.1-3.7-6.3-6-9.2c-3.3-4.2-7.7-7.5-12.1-10.6c-2.9-2.1-6.9-4.2-9.7-1.9
				c-0.8,0.7-1.3,1.7-1.8,2.6c-4.7,9.2-9.4,18.3-14.1,27.5C102,81.7,101.3,83.1,101,84.5z M94.7,84.8c0.1-1.5,0.9-2.8,1.6-4.1
				c5.2-9.8,10.5-19.5,15.7-29.3c1.7-3.1,3.5-6.4,6.5-8.1c3-1.8,7.7-1.3,9.2,1.9c2.2,4.6,7.8,6.3,11.9,9.4c3.4,2.6,5.7,6.2,8,9.8
				c2.9,4.6,5.9,9.1,8.8,13.7c1.1,1.7,2.1,3.3,2.7,5.1c1.6,4.9-0.1,10.3-1.8,15.1c-1,2.8-2.2,5.9-4.9,7c-1.6,0.7-3.5,0.6-5.3,0.4
				c-10-0.8-20.1-1.7-30.1-2.5c-3.2-0.3-6.5-0.6-9.4-1.9c-4.1-1.9-7.1-5.5-9.8-9.2C96.1,90,94.4,87.5,94.7,84.8z"/>
			<path d="M37.3,77c-5.1-0.5-10.7-0.9-15,2c-3.1,2.1-5,5.6-6.6,9c-0.7,1.4-1.4,2.8-1.2,4.4c0.6,4.9,8.9,4.6,10.9,9.1
				c0.7,1.5,0.5,3.2,0.8,4.8c0.7,3.4,3.9,5.9,7.3,6.8s7,0.5,10.5,0c2-0.3,4.1-0.6,5.6-2c2.6-2.4,2.2-6.7,4.3-9.5
				c1.9-2.4,5.3-3,8.1-4.2c2.8-1.2,5.7-4.1,4.5-7c-1.6-4-3.4-8.2-7.1-10.3c-2.3-1.3-4.9-1.6-7.5-1.8C46.9,78,42.1,77.5,37.3,77z
				 M12.8,99c-4.1-2.7-3.6-8.9-1.7-13.5c1.9-4.5,4.8-8.9,9.1-11.4c5.4-3,12-2.5,18.1-2c5.6,0.5,11.2,1,16.7,1.6
				c2.1,0.2,4.3,0.4,6.3,1.3c3.9,1.9,6,6.1,7.9,10c2.3,5,4.2,12-0.2,15.2c-2.4,1.8-5.8,1.6-8.3,3.2c-4.6,3-4.4,10.7-9.2,13.3
				c-1.4,0.8-3.1,1-4.7,1.1c-4.7,0.5-9.4,0.9-14-0.2c-4.5-1.1-8.9-4-10.6-8.4c-1-2.6-1.2-5.7-3.2-7.5C17.1,100.3,14.7,100.2,12.8,99
				z"/>
			<path d="M800.6,93.5c-0.9-0.9-2-1.9-3.4-2c-1.1,0-2.2,0.6-3.1,1.3c-3.1,2.2-6.2,4.6-9.1,7.2c-1.5,1.3-3,2.8-3.5,4.8
				c-0.5,1.9,0.6,4.4,2.5,4.7c4.8,0.6,7.3,5.8,9.8,9.9c2.5,4.1,7.9,8,11.7,5.1c1.1-0.8,1.8-2.1,2.5-3.4c2.3-4.2,4.6-8.9,3.4-13.5
				c-0.6-2.2-2-4.1-3.5-5.9C805.7,98.9,803.2,96.1,800.6,93.5z M791.6,126.7c-2.8-3.5-4.9-7.7-8.4-10.5c-3.5-2.7-8.6-4.6-9.1-9
				c-0.3-3.3,2.3-6.1,4.8-8.3c2.5-2.3,5.1-4.6,7.6-6.9c3.3-2.9,6.9-6,11.2-6.3c5.7-0.3,10.5,4.3,14,8.8c2.3,3,4.5,6.3,5.2,10
				c1.1,5.5-1,11.1-3.1,16.3c-2.1,5.3-5.2,11.4-10.9,12.1C798.4,133.4,794.4,130.2,791.6,126.7z"/>
			<path d="M830.2,93c-4.1-2.7-7.2-6.6-9.1-11.1l2.1-0.9c0.3,0.8,0.8,1.6,1.4,2.3c1.6,1.8,3.9,2.8,6.1,3.7
				c5.5,2.2,11.4,4.2,17.3,3.5c7.9-0.9,14.9-7.1,16.7-14.9c1.4-5.9,0.7-13.4,6-16.3c2.1-1.2,3.6-3.1,4.5-5.4l1.3,0.2
				c-0.3,0.8-0.5,1.6-0.8,2.4c-3.7,12.9-6.2,27.8-17.1,35.8C850.6,98.3,838.7,98.6,830.2,93z"/>
			<path class="st0" d="M840.2,34.8c4.1,2.3,10.1-0.1,11.3-4.6c1-0.5,2.1,0.6,2.4,1.6c0.3,1.1,0,2.2,0.3,3.3
				c0.7,2.5,4.2,3.2,6.5,2.1c2.3-1.1,3.8-3.5,5.1-5.7c4,3.8,8,8,9.7,13.3c0.9,2.9,0.9,6.3-0.1,9.2c-0.8,2.3-2.3,4.3-4.5,5.4
				c-5.3,2.9-4.6,10.5-6,16.3c-1.8,7.7-8.8,14-16.7,14.9c-5.9,0.7-11.7-1.3-17.3-3.5c-2.2-0.9-4.5-1.8-6.1-3.7
				c-0.6-0.7-1.1-1.5-1.4-2.3c-1.7-4.1-0.1-9.4,1.9-13.7c2.4-5.1,5.3-10.9,3.2-16.1c-0.7-1.8-2-3.3-2.2-5.2c-0.3-1.9,1.1-4.2,3-3.8
				C834,43.2,839.3,39.6,840.2,34.8z"/>
			<path class="st0" d="M525.5,121.2c2.1,1.2,3.1,4.4,1.3,5.9c-2.3,1.8-3.5,4.6-5.3,7c-1.7,2.4-4.4,4.5-7.3,4.1
				c-3.2-0.5-5.1-3.8-7.2-6.2c-2.6-3-6.4-4.9-10.3-5.4c4.9-2.3,13.7-4.1,17.9-8.1c1.1,0.8,2.6,1.3,4,1.5
				C520.9,120.2,523.5,120.1,525.5,121.2z"/>
			<path class="st0" d="M758.7,126.5c-1,0.3-1.9-0.6-2.6-1.3c-1.8-1.9-3.5-3.8-5.3-5.7c-0.5-0.6-1-1.1-1.2-1.9
				c-0.3-1.6,1.1-3,2.6-3.5c3-1.1,6.7,0.2,8.4,2.8c1.8,2.7,1.4,6.5-0.8,8.8C759.5,126.1,759.1,126.4,758.7,126.5z"/>
			<path class="st0" d="M303.4,29c8.9,6.6,12.1,19.9,7.2,29.8c-4.6,9.3-9.2,18.5-13.8,27.8c-3.6,7.2-7.3,14.5-13.2,19.9
				c-5.9,5.4-14.6,8.5-22.1,5.6c-4.3-1.7-7.7-5.1-10.8-8.5c-5.2-5.6-10.4-12.2-10.2-19.7c0-0.1,0-0.3,0-0.4
				c0.3-5.6,3.6-10.4,6.3-15.3c6.4-11.3,10.4-24,11.5-36.9c3.4,2.7,9.1,5.1,11.5,1.4c2.3-3.6,9.2,1.7,11.9-1.6
				c2.1-2.5,6.1-0.9,9,0.8c2.8,1.7,7.2,2.9,8.8,0c0.8-1.4,1-3.6,2.6-3.5C302.6,28.4,303,28.7,303.4,29z"/>
			<path d="M898.2,42c-2.3,2.3-3.6,5-4.6,8.1c9.6,12.6,17.7,5.2,17.1-12.4C907,36,901.1,39.2,898.2,42z M756.8,82
				c-19-1.3-33-21.1-32.7-40.2l3.7-2.1c0.1,0.1,0.1,0.2,0.2,0.4c1.6-3.2,3.2-6.5,4.9-9.7c9.9,5.7,24.6,10.4,30.8,0.9
				c10.4,0.8,20.8,1.5,31.3,2.3c6.1-1.5,12.2-2.9,18.2-4.4c6.7,2.7,13.4,5.4,20.1,8.1c2.1-4.6,4.1-9.1,6.2-13.7
				c0,7.2,11.6,3.6,16.1-1.9c0.4,3.8,1.7,7.5,3.8,10.6c2-3.7,5.3-6.8,9.2-8.6c1.5,3.9,4,7.4,7.2,10.1c2-4.9,5.4-9.3,9.8-12.5
				c3.9,4,11.4,3.7,15-0.6c2.7,3,5.4,6,8.1,9c-2.2-3.2,3.3-6.2,7.2-6.3c5.8-0.2,11.6-0.4,17.4-0.6l0.1,3.3
				c-5.7,5.9-15.2,7.8-22.7,4.6c5.7,9,5,23.2-4.5,28c-9.5,4.8-22.2-9.9-13.9-16.6c2.6-2.1,6.3-2.7,9-4.7c2.7-2.1,3.6-7.2,0.4-8.3
				c-12.6,0.2-20.9,12.9-25,25.1l-1.3-0.2c1-2.9,1.1-6.2,0.1-9.2c-1.7-5.3-5.7-9.4-9.7-13.3c-1.3,2.2-2.8,4.6-5.1,5.7
				c-2.3,1.1-5.8,0.4-6.5-2.1c-0.3-1.1-0.1-2.2-0.3-3.3c-0.3-1.1-1.4-2.1-2.4-1.6c-1.3,4.5-7.2,7-11.3,4.6
				c-0.9,4.9-6.2,8.4-11.1,7.4c-1.9-0.4-3.3,1.9-3,3.8c0.3,1.9,1.5,3.5,2.2,5.2c2.1,5.2-0.8,11-3.2,16.1c-2,4.3-3.6,9.6-1.9,13.7
				l-2.1,0.9c-2-4.8-2.7-10.2-1.5-15.3c1.1-4.7,3.5-9.1,3.3-13.9c-0.4-8.2-8.8-14.2-17-14.8c-8.2-0.6-16.1,2.7-23.6,5.9l-3.1,0
				c0-1.8,0-3.7-0.1-5.5c-0.9-0.2-1.8-0.4-2.7-0.6c-1,2.9-3,6.5-6,5.7c-1.6-0.4-2.6-2-4-3c-1.3-1-3.8-1.1-4.1,0.5
				c-0.8,3.3-4.6,5.1-8.1,4.9c-3.4-0.2-6.5-2-9.6-3.4c-3.1-1.4-6.7-2.5-9.9-1.4c-3.3,1.1-5.6,5.2-3.8,8.1c2.9,4.7,2.1,10.8,4.3,15.8
				c2.3,5.2,7.6,8.6,13.1,10.1c5.5,1.5,11.3,1.2,17,0.9c3.4-0.2,7.2-0.6,9.4-3.1l3,0.1C772.4,78.7,764.8,82.6,756.8,82z"/>
			<path d="M419.7,53.3c1.4-2.4,3.4-4.6,4-7.3c1.3-5.1-2.4-9.9-5.9-13.7l0.4-4.8c7.9,0.6,15.8,2.1,23.4,4.3l-0.5,1.9
				c-14.1,2.9-13.6,22.7-18.8,36.3l-2.3-0.8c1.2-2.7,1.3-5.7-0.6-8C417.5,59,418.3,55.7,419.7,53.3z"/>
			<path class="st0" d="M943.3,76c0.6,3.1-0.5,6.7-3.2,8.4c-5.1,3.2-6.4,10.1-6.4,16.1c0,6,0.7,12.5-2.3,17.8
				c-3.7,6.6-13.3,9.1-19.8,5.2c-6-3.6-12.9-5.5-19.9-5.5c-3.1,0-5.8-2.1-7.3-4.8c-1.5-2.7-2-5.8-2.3-8.8
				c-0.7-6.9-0.5-14.6,4.2-19.7c2.1-2.3,4.9-3.8,7.7-5.3c3.8-2,7.6-4.1,11.4-6.1c5.1-2.7,10.2-5.4,15.8-6.7c5.6-1.3,11.8-1,16.6,2.1
				C940.4,70.2,942.7,72.8,943.3,76z"/>
			<path d="M534.9,23.8c1.8,3.2,3.6,6.4,5.5,9.5c13.5,1.5,26.9,3.1,40.4,4.7l-0.4,3.9c-3.7,2.4-7.5,4.8-11.2,7.2
				c-1.9,1.2-4,3.7-3.3,5.5l-1.7,0.9c-2-4-3.3-8.4-3.5-12.7c-5.4-0.5-10.8-1-16.2-1.5c-1.8,18.9-8.3,37.8-20.5,52.3l-0.8-0.7
				c0.4-0.4,0.5-1,0.3-2.1c-2-7.5,1.9-10.8,7.7-15.9c3.2-2.8,6-10.1,7.4-14.1c0.8-2.2,0.6-4.5,0.3-6.8c-0.4-4.1-0.8-8.1-1.2-12.2
				c-0.3-2.5-0.9-5.6-3.3-6.5l-3.5-1.5C532,30.5,533.5,27.1,534.9,23.8z"/>
			<path class="st0" d="M227.5,102.3c3.5,2.5,4.3,7.7,2.9,11.7c-1.4,4.1-4.5,7.3-7.5,10.4c-6.8-6.4-15.9-10.2-25.2-10.7
				c-5.1-0.2-8.4-6.4-7-11.3c1.4-4.9,6.3-8.2,11.3-9.2c5-1,10.2-0.2,15.2,0.6C221.6,94.6,223.8,99.7,227.5,102.3z"/>
			<path d="M686.1,98.6c-0.1,1.5,0.7,2.8,1.6,4c2.3,3.4,4.7,6.8,7,10.2c1.9,2.8,3.9,5.7,6.7,7.7c2.7,2,6.4,3.1,9.6,1.9
				c2.7-1,4.5-3.3,6.7-5.2c3.9-3.4,9.5-6.3,9.7-11.5c0.1-1.8-0.5-3.6-1.1-5.2c-0.9-2.6-1.8-5.1-2.8-7.7c-1.7-4.9-4.5-10.6-9.7-10.9
				c-1.7-0.1-3.4,0.4-5,0.9c-8.1,2.7-16.3,6.2-21.4,13C686.7,96.6,686.1,97.6,686.1,98.6z M679.1,100.3c-0.5-2.8,1.4-5.5,3.3-7.6
				c5.9-6.3,13.3-11,21.2-14.4c3.9-1.7,8.1-3.1,12.4-2.8c4.3,0.3,8.7,2.6,10.3,6.6c0.8,2,0.9,4.3,1.6,6.4c0.9,2.7,2.7,4.9,3.8,7.4
				c2.3,5.3,1.1,11.6-1.8,16.6c-2.9,5-7.4,8.8-12.1,12.2c-3.1,2.3-6.6,4.6-10.5,4.7c-7.2,0.4-12.7-6.2-16.9-12.1
				c-3.1-4.3-6.1-8.6-9.2-12.9C680.3,103.1,679.4,101.8,679.1,100.3z"/>
			<path d="M-0.5,23.4c3.8-1.1,8.3,0.6,10.3,4l0,4.3c-5,0.1-10.4-3-10.5-8.2C-0.6,23.4-0.6,23.4-0.5,23.4z"/>
			<path class="st0" d="M153.9,84.6c1.6,4.6,1,10.5-3,13.3c-3.6,2.5-8.4,1.6-12.7,0.7c-4.7-0.9-9.4-1.7-14.2-1.9
				c-5-0.2-10.1,0.4-14.9-1.2c-4.7-1.6-9-6.1-8.2-11c0.3-1.5,0.9-2.8,1.6-4.1c4.7-9.1,9.4-18.3,14.1-27.5c0.5-0.9,1-1.9,1.8-2.6
				c2.7-2.3,6.8-0.2,9.7,1.9c4.3,3.2,8.8,6.4,12.1,10.6c2.2,2.9,4,6.2,6,9.2C148.9,76.2,152.3,80,153.9,84.6z"/>
			<path d="M445.5,43.8c-3.6-1.8-5.5-6.2-4.5-10.1l0.5-1.9c2.1,0.6,4.2,1.3,6.2,2c3.3-1.9,6.7-3.7,10.1-5.5
				c1.2,3.9,2.5,7.8,3.7,11.8c2.6-4.9,12.1-1.4,10.8,4c4.6-5.8,9.2-11.5,13.9-17.3c3.2,1.3,5.7,4.4,6.1,7.9
				c12.2-3.7,25.5-3.2,37.4,1.2c0.3-0.7,0.6-1.4,0.9-2.1l3.5,1.5c-0.2,3.2-1.7,7.4-4.8,6.8c-3.9-0.8-7.8-1.6-11.7-2.5
				c-0.9-0.2-1.8-0.4-2.7-0.1c-1.2,0.3-2.1,1.3-3.3,1.9c-4.6,2-10.5-5-14.2-1.7c-3.9,3.5-11.2,2-13.4-2.9
				c-4.8,4.3-7.6,10.7-7.4,17.2c0.3,6.9,3.8,13.6,2.7,20.4c-1.1,7.1-7.2,13.4-5.6,20.4c0.1,0.3,0.1,0.6,0.2,0.9l-3.6,0.5
				c-0.3-0.9-0.5-1.8-0.6-2.8c-1-7,2.2-13.7,3.4-20.6c1.6-9.1-0.1-18.8-4.9-26.7c-6.1,2.3-13.7-3.2-13.4-9.7
				C451.7,38.8,448.6,41.2,445.5,43.8z"/>
			<path class="st0" d="M408.4,35.4c-1.1,1.2,0.6,3.2,2.2,3c1.6-0.3,2.7-1.7,3.6-3.1c0.9-1.3,2-2.8,3.6-3c3.5,3.8,7.2,8.7,5.9,13.7
				c-0.7,2.7-2.7,4.8-4,7.3c-1.4,2.4-2.1,5.7-0.4,7.8c1.9,2.3,1.8,5.3,0.6,8c-0.9,1.9-2.3,3.7-4.1,4.9c-4.1,2.9-9.3,3.6-14,5.5
				c-3.9,1.6-7.5,4.1-11.5,5.5c-3.5,1.3-7.6,1.6-10.8,0c-0.5-0.2-0.9-0.5-1.3-0.8c-3.1-2.3-4.3-6.3-5.8-9.9
				c-2.8-6.8-7.4-12.9-13.2-17.5c-2.5-2-5.5-3.9-7-6.8c-1.5-2.9-1-7.2,2-8.5c3.8-1.6,7.4-3.8,10.4-6.6c3.3-0.4,2.1,6.3,5.1,7.5
				c3.5,1.4,5.8-6.3,9.3-4.9c3,1.1,6.7-1,7.2-4.2c1.1-0.7,2.5,0.6,3,1.8c0.5,1.2,0.9,2.7,2.2,3.1c2.1,0.7,3.8-2.6,6.1-2.5
				c1.8,0.1,3,2.1,4.8,1.9c1.2-0.1,2-1.3,2.9-2.1C406.1,34.7,407.8,34.4,408.4,35.4z"/>
			<path d="M886.3,84.6c-4.7,5.1-4.9,12.8-4.2,19.7c0.3,3,0.8,6.2,2.3,8.8c1.5,2.7,4.2,4.8,7.3,4.8c7,0,13.9,1.9,19.9,5.5
				c6.5,3.9,16.1,1.4,19.8-5.2c3-5.3,2.3-11.7,2.3-17.8c0-6.1,1.3-12.9,6.4-16.1c2.7-1.7,3.9-5.2,3.2-8.4s-2.9-5.7-5.5-7.5
				c-4.8-3.1-11-3.4-16.6-2.1c-5.6,1.3-10.7,4-15.8,6.7c-3.8,2.1-7.6,4.1-11.4,6.1C891.2,80.7,888.4,82.2,886.3,84.6z M878,88.3
				c2.2-5.6,7-9.7,12-13c5-3.3,10.3-6.2,15.6-8.8c6.3-3.2,12.9-6.1,19.9-7c7-0.8,14.7,0.9,19.6,5.9c4.9,5,6.2,13.9,1.7,19.3
				c-1.8,2.1-4.2,3.5-5.7,5.8c-3.2,4.7-1.3,11-1.3,16.7c0.1,11.7-9.1,22.8-20.6,24.9c-3.6,0.7-7.6,0.4-10.3-2
				c-6.7-6.1-18.3-2.8-25.7-8.1c-6.7-4.8-7.3-14.4-6.9-22.7C876.4,95.6,876.6,91.8,878,88.3z"/>
			<path d="M369.8,42.4c-3.1-1.2-1.9-7.9-5.1-7.5c-3.1,2.8-6.6,5-10.4,6.6c-3,1.3-3.6,5.6-2,8.5c1.5,2.9,4.4,4.8,7,6.8
				c5.8,4.6,10.4,10.7,13.2,17.5c1.5,3.6,2.7,7.6,5.8,9.9c0.4,0.3,0.9,0.6,1.3,0.8l-0.9,1.9c-6.1-3-11.2-7.9-14.3-14
				c-5.2-10.4-12.8-19.6-21.9-26.9l3.7-0.4c2-6,4.3-12.4,9.5-16c5.2-3.6,14.1-2.3,15.7,3.8c15-5.2,31-7.2,46.8-5.9l-0.4,4.8
				c-1.6,0.2-2.7,1.7-3.6,3c-0.9,1.3-2,2.8-3.6,3.1c-1.6,0.3-3.3-1.8-2.2-3c-0.6-1.1-2.2-0.7-3.1,0.1c-0.9,0.8-1.7,2-2.9,2.1
				c-1.7,0.2-3-1.9-4.8-1.9c-2.3-0.1-3.9,3.2-6.1,2.5c-1.3-0.4-1.7-1.9-2.2-3.1c-0.5-1.2-1.9-2.5-3-1.8c-0.5,3.1-4.3,5.3-7.2,4.2
				C375.6,36.1,373.3,43.8,369.8,42.4z"/>
			<path class="st0" d="M726.2,100.4c0.6,1.7,1.2,3.4,1.1,5.2c-0.3,5.2-5.8,8.1-9.7,11.5c-2.1,1.9-4,4.2-6.7,5.2
				c-3.2,1.2-6.9,0.1-9.6-1.9c-2.8-2-4.7-4.9-6.7-7.7c-2.3-3.4-4.7-6.8-7-10.2c-0.8-1.2-1.7-2.5-1.6-4c0.1-1.1,0.7-2,1.3-2.8
				c5.1-6.8,13.4-10.4,21.4-13c1.6-0.5,3.3-1.1,5-0.9c5.2,0.4,7.9,6.1,9.7,10.9C724.4,95.3,725.3,97.9,726.2,100.4z"/>
			<path class="st0" d="M212,35.6c-1.2,9.4-6,17.9-10.7,26c-2.6,4.5-5.9,9.5-11.1,10c-6.2,0.6-10.6-5.5-15.1-9.8
				c-4.9-4.6-11.1-7.6-16.2-12c-2.5-2.3-4.8-5.2-6.1-8.3c-1.2-3.1-1.6-6.3-0.4-9.5c0.6-1.5,1.6-3.1,3.2-3.5c1.3-0.4,2.7,0.1,4,0.5
				c5.2,1.6,10.7,2.2,16.2,1.8c1.5-0.1,2.8-0.6,4-1.4c2.7-1.7,4.8-4.5,6.5-7.3C193.1,29.4,202.3,34.1,212,35.6z"/>
			<path d="M424.1,106c-2.2,1.5-4.8,3.6-4.1,6.2c0.3,1,1,1.8,1.7,2.6c5.6,6.3,11.3,12.5,16.9,18.8c1.3,1.5,2.9,3.1,4.9,3.1
				c1.4,0,2.6-0.7,3.8-1.4c4.9-2.9,9.8-5.8,14.8-8.7c0.8-0.4,1.6-0.9,2.1-1.7c0.7-1.2,0.6-2.7,0.4-4.1c-0.9-6-2-12.4-5.8-17.1
				c-1.7-2.1-4-3.9-5.2-6.4c-1.2-2.6-1.1-5.6-1.8-8.4c-0.7-2.8-2.9-5.7-5.7-5.4C440.2,92.3,432.7,100,424.1,106z M414.8,113.9
				c-1.7-6.1,3.4-11.9,8.6-15.5c5.2-3.6,11.4-6.9,13.4-13c1.5-4.7,6.5-8.2,11.4-7.6c4.9,0.7,8.9,5.8,7.9,10.6
				c-0.8,4,2.9,7.2,5.5,10.3c5.4,6.5,6.7,15.4,7.8,23.7c0.2,1.7,0.4,3.4-0.1,5c-0.9,2.5-3.4,4.1-5.6,5.4
				c-5.9,3.4-11.9,6.8-17.8,10.2c-2.7,1.6-5.9-0.9-8.1-3.1c-6.1-6.4-12.2-12.8-18.3-19.2C417.6,118.7,415.6,116.5,414.8,113.9z"/>
			<path class="st0" d="M672.6,58.6c0.5,1.1,0.7,2.6,0.4,3.9c-0.3,1-0.9,1.9-2,2c-2.2,0.2-3.8,2.3-4.6,4.4c-0.8,2.1-1.1,4.3-2.1,6.3
				c-2.1,3.9-6.8,5.5-11,6.8c-3.8,1.2-7.6,2.4-11.3,3.5c-0.8,0.2-1.5,0.5-2.3,0.4c-0.4-0.1-0.8-0.2-1.2-0.5c-1-0.7-1.7-2.1-2.2-3.3
				c-4.4-10.6-8.9-21.3-13.3-31.9c-0.3-0.8-0.7-1.7-0.5-2.5c0.4-1.6,2.4-2.1,4-2.3c4.3-0.5,8.6-1,12.9-1.4c4.5-0.4,9-0.8,13.6-1.2
				c1.4-0.1,2.8-0.2,4.3-0.3c3.5-0.3,7.1-0.5,10.2,1c3.1,1.5,5.3,5.5,3.7,8.6C670.1,54,671.6,56.5,672.6,58.6z"/>
			<path d="M961.5,21.7c0.2,0,0.4,0,0.7,0c-4,4.3-8.4,8.8-14,10.5c-5.7,1.7-13-0.5-14.8-6.1l-0.1-3.3
				C942.7,22.4,952.1,22,961.5,21.7z"/>
			<path class="st0" d="M585.6,44c0.6-0.4,1.1-1,1.8-0.9c0.7,0.1,1.1,0.7,1.4,1.3c2.5,4.7,3.5,10.2,2.8,15.4
				c-0.1,0.8-0.3,1.7-0.7,2.4c-0.4,0.7-0.9,1.3-1.7,1.5c-0.9,0.2-1.9-0.1-2.7-0.5c-6.3-2.4-12.5-4.8-18.8-7.3
				c-0.5-0.2-1-0.4-1.3-0.7c-0.3-0.2-0.5-0.5-0.6-0.8c-0.7-1.8,1.3-4.3,3.3-5.5c3.7-2.4,7.5-4.8,11.2-7.2
				C580.8,44.1,583.8,45.3,585.6,44z"/>
			<path d="M87.1,62.7c-11.3,6.6-25.2,5.8-38.2,4.8c-3.9-0.3-8.3-0.9-10.5-4.1c-1.6-2.3-1.6-5.2-1.6-8c0.1-8.4,0.3-16.7,0.4-25.1
				l2.6,0.1c0,1.6,0.6,3.3,1.2,4.8c2.3,5.7,4.4,12.1,2.1,17.8c-0.8,2-2.2,3.9-2.5,6c-0.2,2.2,1.4,4.8,3.5,4.4
				C57.6,60.8,71.4,60.3,85,62c0.9,0.1,1.6-0.1,2.3-0.5l0.5,0.8C87.6,62.5,87.4,62.6,87.1,62.7z"/>
			<path d="M635.8,115.7c-0.5,0.7-1,1.6-0.8,2.4c0.2,0.9,1,1.4,1.7,1.9c6.5,4.2,13.5,8.7,21.3,8.7c-3.3-5-2.2-12.4,2.3-16.3
				c1.6-1.4,3.9-3.4,2.7-5.2C653.4,103.9,641.8,107.5,635.8,115.7z M629.5,120.7c-2.3-4.9,1.7-10.4,6.1-13.6
				c5.7-4.1,12.6-6.7,19.6-7.4c3.1-0.3,6.4-0.2,9.2,1.1c2.8,1.3,5.1,4.2,4.9,7.3c-0.3,5.8-8.4,9.6-7.4,15.4c0.4,1.9,1.8,3.5,1.9,5.5
				c0.2,2.8-2.4,5.1-5.1,5.7c-2.7,0.5-5.5-0.3-8.1-1.2c-5.6-2.1-11-4.7-16.1-7.9C632.5,124.2,630.5,122.8,629.5,120.7z"/>
		</g>
		<g>
			<polyline class="st2" points="-0.5,23.3 -0.5,0.5 -0.5,0 			"/>
			<polyline class="st2" points="-1,0.5 -0.5,0.5 961.5,0.5 962,0.5 			"/>
			<polyline class="st2" points="961.5,1 961.5,21.7 961.5,22.3 			"/>
		</g>
	</g>
</g>
</svg>
